<?xml version="1.0" encoding="utf-8"?>
<!-- Generator: Adobe Illustrator 18.1.0, SVG Export Plug-In . SVG Version: 6.00 Build 0)  -->
<svg version="1.1" id="Слой_1" xmlns="http://www.w3.org/2000/svg" xmlns:xlink="http://www.w3.org/1999/xlink" x="0px" y="0px"
	 viewBox="0 0 56 56" enable-background="new 0 0 56 56" xml:space="preserve">
<g>
	<defs>
		<rect id="SVGID_1_" width="56" height="56"/>
	</defs>
	<clipPath id="SVGID_2_">
		<use xlink:href="#SVGID_1_"  overflow="visible"/>
	</clipPath>
	<path clip-path="url(#SVGID_2_)" fill="#EE0000" d="M28,0C12.5,0,0,12.5,0,28s12.5,28,28,28s28-12.5,28-28S43.5,0,28,0 M28,3.5
		c3.2,0,6.3,0.7,9.2,1.8l-1.7,6.9c-2.3-1.1-4.8-1.7-7.4-1.7c-2.7,0-5.2,0.7-7.4,1.7l-0.9-3.5l-0.9-3.5C21.7,4.1,24.8,3.5,28,3.5
		 M12.2,35.4l-3.5,0.9l-3.5,0.9c-1.1-2.8-1.8-5.9-1.8-9.2c0-3.2,0.6-6.3,1.8-9.2l6.9,1.7c-1.1,2.3-1.7,4.8-1.7,7.4
		C10.5,30.7,11.1,33.2,12.2,35.4 M28,52.5c-3.2,0-6.3-0.6-9.2-1.8l1.7-6.9c2.3,1.1,4.8,1.7,7.4,1.7c2.7,0,5.2-0.6,7.4-1.7l0.9,3.5
		l0.9,3.5C34.3,51.9,31.2,52.5,28,52.5 M28,42c-7.7,0-14-6.3-14-14c0-7.7,6.3-14,14-14c7.7,0,14,6.3,14,14C42,35.7,35.7,42,28,42
		 M43.8,35.4c1.1-2.3,1.7-4.8,1.7-7.4c0-2.7-0.6-5.2-1.7-7.4l3.5-0.9l3.5-0.9c1.1,2.8,1.8,5.9,1.8,9.2c0,3.2-0.6,6.3-1.8,9.2
		L43.8,35.4z"/>
</g>
</svg>
