<?xml version="1.0" encoding="utf-8"?>
<!-- Generator: Adobe Illustrator 18.1.0, SVG Export Plug-In . SVG Version: 6.00 Build 0)  -->
<svg version="1.1" id="Слой_1" xmlns="http://www.w3.org/2000/svg" xmlns:xlink="http://www.w3.org/1999/xlink" x="0px" y="0px"
	 viewBox="0 0 71.4 56" enable-background="new 0 0 71.4 56" xml:space="preserve">
<g>
	<defs>
		<rect id="SVGID_1_" width="71.4" height="56"/>
	</defs>
	<clipPath id="SVGID_2_">
		<use xlink:href="#SVGID_1_"  overflow="visible"/>
	</clipPath>
	<path clip-path="url(#SVGID_2_)" fill="#EE0000" d="M4.8,54.5c2.6,0.9,6.1,1.5,9.7,1.5s7.1-0.5,9.7-1.5c4-1.5,4.8-3.5,4.8-4.9v-0.1
		v-6.1v-0.1v-0.1v-6.2V37v-6.2c0-1.4-0.9-3.4-4.8-4.9c-2.6-0.9-6.1-1.5-9.7-1.5s-7.1,0.5-9.7,1.5c-4,1.5-4.8,3.5-4.8,4.9v0.1V37v0.1
		v0.1v6.1v0.1v0.1v6.1v0.1C0,51.1,0.9,53,4.8,54.5 M3.2,30.8c0-0.2,0.5-1.1,2.7-1.9c2.3-0.9,5.3-1.3,8.6-1.3s6.3,0.5,8.6,1.3
		c2.3,0.9,2.7,1.6,2.7,1.9c0,0.2-0.5,1.1-2.7,1.9c-2.3,0.9-5.3,1.3-8.6,1.3s-6.3-0.5-8.6-1.3C3.8,31.9,3.2,31.1,3.2,30.8 M3.2,35
		c0.5,0.2,1,0.5,1.6,0.7c2.6,0.9,6.1,1.5,9.7,1.5s7.1-0.5,9.7-1.5c0.6-0.2,1.2-0.5,1.6-0.7v2c0,0.2-0.5,1.1-2.7,1.9
		c-2.3,0.9-5.3,1.3-8.6,1.3s-6.3-0.5-8.6-1.3c-2.2-0.8-2.7-1.6-2.7-1.9V35z M3.2,41.3c0.5,0.2,1,0.5,1.6,0.7
		c2.6,0.9,6.1,1.5,9.7,1.5s7.1-0.5,9.7-1.5c0.6-0.2,1.2-0.5,1.6-0.7v2c0,0.2-0.5,1.1-2.7,1.9c-2.3,0.9-5.3,1.3-8.6,1.3
		s-6.3-0.5-8.6-1.3c-2.2-0.8-2.7-1.6-2.7-1.9V41.3z M3.2,47.6c0.5,0.2,1,0.5,1.6,0.7c2.6,0.9,6.1,1.5,9.7,1.5s7.1-0.5,9.7-1.5
		c0.6-0.2,1.2-0.5,1.6-0.7v2c0,0.2-0.5,1.1-2.7,1.9c-2.3,0.9-5.3,1.3-8.6,1.3s-6.3-0.5-8.6-1.3c-2.3-0.9-2.7-1.6-2.7-1.9V47.6z
		 M54.3,37.9L54.3,37.9v-0.2l0.5-7.9v-0.1c0.1-0.6,0.6-1.2,1.3-1.2c0.7,0,1.3,0.5,1.3,1.2l0.5,7.2c0,0.2,0.1,0.4,0.2,0.5l3.2,3.8
		l0.1,0.1c0.4,0.5,0.3,1.3-0.2,1.7c-0.5,0.5-1.3,0.5-1.8,0.1l-4.5-3.8c-0.1-0.1-0.2-0.2-0.2-0.2C54.4,38.9,54.3,38.4,54.3,37.9
		C54.3,37.9,54.3,37.9,54.3,37.9 M38.1,34.5c-0.2,1-0.2,2.1-0.2,3.1v0.2c-1,0.1-2.1,0.2-3.2,0.2c-0.8,0-1.6,0-2.3-0.1v-0.8V37v-2.4
		c0.8,0.1,1.6,0.1,2.3,0.1C35.8,34.6,37,34.6,38.1,34.5 M20,19v2.6c2,0.3,3.8,0.7,5.3,1.3c1.6,0.5,2.7,1.3,3.7,2
		c1.7,0.3,3.6,0.5,5.6,0.5c3.5,0,6.8-0.5,9.4-1.4c1.5-1.3,3.3-2.5,5.2-3.3V19v-0.1v-0.1v-6.2v-0.1V6.4c0-1.4-0.9-3.4-4.8-4.9
		C41.7,0.5,38.2,0,34.6,0c-3.6,0-7.1,0.5-9.7,1.5C20.9,3,20,4.9,20,6.4v0.1v6.1v0.1v0.1v6.1V19L20,19z M23.2,6.3
		c0-0.2,0.5-1.1,2.7-1.9c2.3-0.9,5.3-1.3,8.6-1.3s6.3,0.5,8.6,1.3c2.3,0.9,2.7,1.6,2.7,1.9c0,0.2-0.5,1.1-2.7,1.9
		c-2.3,0.9-5.3,1.3-8.6,1.3S28.2,9.1,26,8.2C23.9,7.5,23.3,6.6,23.2,6.3 M23.2,10.6c0.5,0.2,1,0.5,1.6,0.7c2.6,0.9,6.1,1.5,9.7,1.5
		c3.6,0,7.1-0.5,9.7-1.5c0.6-0.2,1.2-0.5,1.6-0.7v2c0,0.2-0.5,1.1-2.7,1.9c-2.3,0.9-5.3,1.3-8.6,1.3s-6.3-0.5-8.6-1.3
		c-2.2-0.8-2.7-1.6-2.7-1.9V10.6z M23.2,16.8c0.5,0.2,1,0.5,1.6,0.7c2.6,0.9,6.1,1.5,9.7,1.5c3.6,0,7.1-0.5,9.7-1.5
		c0.6-0.2,1.2-0.5,1.6-0.7v2c0,0.2-0.5,1.1-2.7,1.9c-2.3,0.9-5.3,1.3-8.6,1.3s-6.3-0.5-8.6-1.3c-2.2-0.8-2.7-1.6-2.7-1.9V16.8z
		 M32.3,43.4L32.3,43.4L32.3,43.4v-0.2v-2.4c0.8,0.1,1.6,0.1,2.3,0.1c1.2,0,2.3-0.1,3.5-0.2c0.2,1.1,0.5,2.1,0.9,3.1
		c-1.4,0.2-2.8,0.2-4.3,0.2c-0.8,0-1.6,0-2.3-0.1L32.3,43.4L32.3,43.4z M40.7,27.7c-0.8,1.2-1.3,2.4-1.8,3.7
		c-1.4,0.2-2.8,0.2-4.3,0.2c-0.8,0-1.6,0-2.3-0.1v-0.8c0-0.7-0.1-1.6-0.5-2.7c0.9,0.1,1.9,0.2,2.9,0.2
		C36.8,28.3,38.9,28.1,40.7,27.7 M41.1,37.6c0,8.4,6.8,15.2,15.2,15.2c8.4,0,15.2-6.8,15.2-15.2c0-8.4-6.8-15.2-15.2-15.2
		C47.9,22.4,41.1,29.3,41.1,37.6 M56.2,26c6.4,0,11.7,5.2,11.7,11.7c0,6.4-5.2,11.7-11.7,11.7S44.5,44,44.5,37.6
		C44.5,31.2,49.7,26,56.2,26"/>
</g>
</svg>
