<?xml version="1.0" encoding="utf-8"?>
<!-- Generator: Adobe Illustrator 20.1.0, SVG Export Plug-In . SVG Version: 6.00 Build 0)  -->
<svg version="1.1" id="Слой_1" xmlns="http://www.w3.org/2000/svg" xmlns:xlink="http://www.w3.org/1999/xlink" x="0px" y="0px"
	 viewBox="0 0 144.6 72" style="enable-background:new 0 0 144.6 72;" xml:space="preserve">
<style type="text/css">
	.st0{fill:#EE0000;}
	.st1{fill:#FFFFFF;}
</style>
<rect class="st0" width="144.6" height="72"/>
<g>
	<polygon class="st1" points="135.1,9.5 135.1,49.6 128.4,49.6 128.4,22.8 81.6,22.8 81.6,49.6 74.9,49.6 74.9,9.5 	"/>
	<polygon class="st1" points="115.1,42.9 135.1,63 108.4,63 108.4,49.6 101.7,49.6 101.7,63 74.9,63 95,42.9 	"/>
</g>
<g>
	<g>
		<path class="st1" d="M22,18v1.2c0,0.1-0.1,0.2-0.2,0.2c-1.2,0-2.1-0.3-2.6-0.9c-1.3,0.7-2.4,0.9-4,0.9h-1.8
			c-2.5,0-3.9-1.2-3.9-3.5v-2.4H11v2.1c0,1.6,0.9,2.3,2.8,2.3h1.4c1.5,0,2.7-0.2,3.5-0.6c-0.1-0.3-0.1-0.6-0.1-1V8l1.5-0.2V16
			c0,1.4,0.4,1.8,1.7,1.8C21.9,17.9,22,17.9,22,18z M14.6,13.5c-0.5,0-0.9,0-1.7,0.3v-1.1c0.5-0.2,0.7-0.3,1-0.3
			c-0.2-0.2-0.4-0.5-0.4-0.8c0-0.9,0.7-1.5,1.6-1.5c0.4,0,0.8,0.1,1.2,0.3v1c-0.4-0.1-0.8-0.2-1-0.2c-0.4,0-0.7,0.2-0.7,0.6
			s0.4,0.6,0.9,0.6h1.4l-0.4,1.2H14.6z"/>
		<path class="st1" d="M21.6,19.2V18c0-0.1,0.1-0.1,0.2-0.1c1.3,0,1.8-0.5,1.8-1.9V8l1.5-0.2v8.5c0,2.1-1.1,3.1-3.3,3.1
			C21.7,19.4,21.6,19.3,21.6,19.2z"/>
		<path class="st1" d="M27.8,16.3V8l1.5-0.2V16c0,1.4,0.4,1.8,1.7,1.8c0.1,0,0.2,0,0.2,0.1v1.2c0,0.1-0.1,0.2-0.2,0.2
			C28.8,19.4,27.8,18.4,27.8,16.3z"/>
		<path class="st1" d="M43.5,12v4.4c0,2-1,2.9-2.9,2.9c-1,0-1.7-0.4-2.2-1.1c-0.5,0.7-1.4,1.1-2.5,1.1c-0.8,0-1.6-0.4-2-1.2
			c-0.5,0.7-1.5,1.2-2.8,1.2c-0.1,0-0.2-0.1-0.2-0.2V18c0-0.1,0.1-0.1,0.2-0.1c1.2,0,1.8-0.5,1.8-1.8v-1.6l1.5-0.2V16
			c0,1.4,0.5,1.9,1.4,1.9c1,0,1.6-0.5,1.6-1.8v-2.5l1.5-0.2v2.8c0,1.1,0.6,1.8,1.5,1.8c1,0,1.6-0.6,1.6-1.8v-3.8L43.5,12z"/>
	</g>
	<g>
		<path class="st1" d="M12.9,37.3c1.7,0,2.8-0.7,2.8-1.8c0-1-0.6-1.6-2.2-2l-0.9-0.2c-1.8-0.4-3.1-1.5-3.1-3.3
			c0-1.9,1.9-3.1,4.2-3.1c0.9,0,1.9,0.2,2.8,0.5v1.5c-0.8-0.3-1.9-0.5-2.8-0.5c-1.6,0-2.5,0.7-2.5,1.6c0,1,0.7,1.5,2,1.8l0.8,0.2
			c2.2,0.5,3.3,1.4,3.3,3.3c0,2.1-1.9,3.4-4.5,3.4c-1,0-2.2-0.2-3.3-0.6v-1.5C10.6,37,11.8,37.3,12.9,37.3z"/>
		<path class="st1" d="M19.3,32.5V31c0.7-0.3,1.7-0.6,2.8-0.6c1.9,0,3.7,0.7,3.7,3.2v4.8h-1.5v-1.1c-0.5,0.9-1.4,1.4-2.6,1.4
			c-1.7,0-3-1-3-2.5c0-2.1,2.5-2.7,4.5-2.7c0.4,0,0.7,0,1,0v-0.1c0-1.4-1.1-1.8-2.3-1.8C20.9,31.8,20,32,19.3,32.5z M22,37.5
			c0.9,0,2.2-0.5,2.2-2.3v-0.4c-0.4,0-0.7-0.1-1.1-0.1c-1.4,0-2.8,0.4-2.8,1.5C20.2,37,21,37.5,22,37.5z"/>
		<path class="st1" d="M29.2,26.9v9.1c0,1.1,0.6,1.2,1.5,1.2v1.4c-0.3,0-0.5,0-0.8,0c-1.6,0-2.3-0.8-2.3-2.4v-9.3H29.2z"/>
		<path class="st1" d="M34.3,28c0,0.5-0.4,1-1.1,1c-0.6,0-1.1-0.5-1.1-1c0-0.5,0.4-1,1.1-1C33.8,27,34.3,27.4,34.3,28z M32.4,30.7
			H34v7.8h-1.6V30.7z"/>
		<path class="st1" d="M36.1,38.5V26.9h1.6v6.9l3.6-3.2h1.9l-4,3.6l4.3,4.2h-2.1l-3.7-3.6v3.6H36.1z"/>
	</g>
</g>
</svg>
